SplineFontDB: 3.0
FontName: BenchTwelve-Regular
FullName: BenchTwelve Regular
FamilyName: BenchTwelve
Weight: Regular
Copyright: (c) 2012 Vernon Adams
Version: 1.000;PS (version unavailable);hotconv 1.0.57;makeotf.lib2.0.21895 DEVELOPMENT
ItalicAngle: 0
UnderlinePosition: -50
UnderlineWidth: 50
Ascent: 1536
Descent: 512
sfntRevision: 0x00010000
LayerCount: 2
Layer: 0 0 "Back"  1
Layer: 1 0 "Fore"  0
XUID: [1021 14 500265001 1996015]
FSType: 8
OS2Version: 3
OS2_WeightWidthSlopeOnly: 0
OS2_UseTypoMetrics: 1
CreationTime: 1340544700
ModificationTime: 1340541155
PfmFamily: 81
TTFWeight: 400
TTFWidth: 5
LineGap: 9
VLineGap: 0
Panose: 0 0 0 0 0 0 0 0 0 0
OS2TypoAscent: 1536
OS2TypoAOffset: 0
OS2TypoDescent: -512
OS2TypoDOffset: 0
OS2TypoLinegap: 0
OS2WinAscent: 2048
OS2WinAOffset: 0
OS2WinDescent: 0
OS2WinDOffset: 0
HheadAscent: 750
HheadAOffset: 0
HheadDescent: -250
HheadDOffset: 0
OS2SubXSize: 1331
OS2SubYSize: 1228
OS2SubXOff: 0
OS2SubYOff: 153
OS2SupXSize: 1331
OS2SupYSize: 1228
OS2SupXOff: 0
OS2SupYOff: 716
OS2StrikeYSize: 50
OS2StrikeYPos: 603
OS2Vendor: 'newt'
OS2CodePages: 00000001.00000000
OS2UnicodeRanges: 00000001.00000000.00000000.00000000
DEI: 91125
LangName: 1033 "+AKkA 2012 Vernon Adams" "" "" "1.000;newt;BenchTwelve-Regular" "BenchTwelve-Regular" "Version 1.000;PS (version unavailable);hotconv 1.0.57;makeotf.lib2.0.21895 DEVELOPMENT" 
Encoding: UnicodeBmp
Compacted: 1
UnicodeInterp: none
NameList: Adobe Glyph List
DisplaySize: -48
AntiAlias: 1
FitToEm: 1
WinInfo: 0 25 14
BeginPrivate: 0
EndPrivate
BeginChars: 65537 75

StartChar: .notdef
Encoding: 65536 -1 0
Width: 1024
Flags: HW
LayerCount: 2
Fore
SplineSet
102 -299 m 1
 102 1475 l 1
 922 1475 l 1
 922 -299 l 1
 102 -299 l 1
204 -197 m 1
 820 -197 l 1
 820 1373 l 1
 204 1373 l 1
 204 -197 l 1
EndSplineSet
EndChar

StartChar: percent
Encoding: 37 37 2
Width: 2580
Flags: HW
LayerCount: 2
Fore
SplineSet
1006 -82 m 2
 840 -82 l 2
 803 -82 779 -45 794 -12 c 2
 1449 1466 l 2
 1467 1508 1511 1536 1557 1536 c 2
 1722 1536 l 2
 1759 1536 1783 1499 1768 1466 c 2
 1114 -12 l 2
 1095 -54 1052 -82 1006 -82 c 2
990 1026 m 0
 990 788 839 549 542 549 c 0
 245 549 93 788 93 1026 c 0
 93 1262 241 1497 542 1497 c 0
 843 1497 990 1262 990 1026 c 0
710 1018 m 0
 710 1206 650 1317 542 1317 c 0
 433 1317 374 1206 374 1018 c 0
 374 834 429 729 542 729 c 0
 655 729 710 834 710 1018 c 0
2039 -47 m 0
 1742 -47 1590 193 1590 430 c 0
 1590 666 1738 901 2039 901 c 0
 2340 901 2488 666 2488 430 c 0
 2488 193 2336 -47 2039 -47 c 0
2039 133 m 0
 2152 133 2207 238 2207 422 c 0
 2207 610 2148 721 2039 721 c 0
 1930 721 1871 610 1871 422 c 0
 1871 238 1926 133 2039 133 c 0
EndSplineSet
EndChar

StartChar: parenleft
Encoding: 40 40 3
Width: 995
Flags: HW
LayerCount: 2
Fore
SplineSet
563 698 m 0
 563 456 629 213 762 147 c 0
 824 117 837 96 837 27 c 2
 837 -73 l 2
 837 -111 799 -146 760 -143 c 0
 303 -103 73 297 73 698 c 0
 73 1098 303 1499 760 1540 c 0
 799 1543 837 1508 837 1470 c 2
 837 1372 l 2
 837 1303 824 1282 762 1251 c 0
 630 1185 563 941 563 698 c 0
EndSplineSet
EndChar

StartChar: parenright
Encoding: 41 41 4
Width: 997
Flags: HW
LayerCount: 2
Fore
SplineSet
924 698 m 0
 924 297 694 -103 237 -143 c 0
 198 -146 160 -111 160 -73 c 2
 160 27 l 2
 160 96 173 117 235 147 c 0
 368 213 434 456 434 698 c 0
 434 941 367 1185 235 1251 c 0
 173 1282 160 1303 160 1372 c 2
 160 1470 l 2
 160 1508 198 1543 237 1540 c 0
 694 1499 924 1098 924 698 c 0
EndSplineSet
EndChar

StartChar: plus
Encoding: 43 43 5
Width: 1137
Flags: HW
LayerCount: 2
Fore
SplineSet
370 397 m 2
 126 397 l 2
 83 397 49 431 49 474 c 2
 49 625 l 2
 49 668 83 702 126 702 c 2
 370 702 l 2
 390 702 407 719 407 739 c 2
 407 1002 l 2
 407 1045 441 1079 484 1079 c 2
 656 1079 l 2
 699 1079 733 1045 733 1002 c 2
 733 739 l 2
 733 719 750 702 770 702 c 2
 1010 702 l 2
 1053 702 1087 668 1087 625 c 2
 1087 474 l 2
 1087 431 1053 397 1010 397 c 2
 770 397 l 2
 750 397 733 380 733 360 c 2
 733 97 l 2
 733 54 699 20 656 20 c 2
 484 20 l 2
 441 20 407 54 407 97 c 2
 407 360 l 2
 407 380 390 397 370 397 c 2
EndSplineSet
EndChar

StartChar: comma
Encoding: 44 44 6
Width: 653
Flags: HW
LayerCount: 2
Fore
SplineSet
541 25 m 2
 541 -212 374 -299 236 -322 c 0
 201 -328 160 -293 160 -257 c 2
 160 -216 l 2
 160 -162 183 -125 231 -101 c 0
 274 -79 291 -58 298 -37 c 0
 302 -22 286 0 271 0 c 2
 230 0 l 2
 192 0 160 32 160 70 c 2
 160 273 l 2
 160 316 194 350 237 350 c 2
 464 350 l 2
 507 350 541 316 541 273 c 2
 541 25 l 2
EndSplineSet
EndChar

StartChar: period
Encoding: 46 46 7
Width: 699
Flags: HW
LayerCount: 2
Fore
SplineSet
237 350 m 2
 464 350 l 2
 507 350 541 316 541 273 c 2
 541 77 l 2
 541 34 507 0 464 0 c 2
 237 0 l 2
 194 0 160 34 160 77 c 2
 160 273 l 2
 160 316 194 350 237 350 c 2
EndSplineSet
EndChar

StartChar: slash
Encoding: 47 47 8
Width: 1408
Flags: HW
LayerCount: 2
Fore
SplineSet
795 1647 m 2
 1327 1647 l 2
 1345 1647 1357 1629 1351 1612 c 2
 664 -172 l 2
 656 -193 636 -207 614 -207 c 2
 82 -205 l 2
 64 -205 52 -187 58 -170 c 2
 745 1612 l 2
 753 1633 773 1647 795 1647 c 2
EndSplineSet
EndChar

StartChar: A
Encoding: 65 65 9
Width: 2560
Flags: HW
LayerCount: 2
Fore
SplineSet
1297 1242 m 1
 936 481 l 1
 1635 481 l 1
 1297 1242 l 1
740 67 m 2
 720 24 684 0 641 0 c 2
 537 0 l 2
 494 0 481 24 502 67 c 2
 1152 1371 l 2
 1172 1412 1205 1435 1245 1438 c 1
 1353 1438 l 1
 1393 1435 1426 1412 1447 1371 c 1
 2057 67 l 1
 2079 24 2067 0 2024 0 c 2
 1920 0 l 2
 1877 0 1839 23 1819 67 c 2
 1704 326 l 1
 863 326 l 1
 740 67 l 2
EndSplineSet
EndChar

StartChar: B
Encoding: 66 66 10
Width: 2398
Flags: HW
LayerCount: 2
Fore
SplineSet
1352 0 m 2
 235 0 l 2
 192 0 158 34 158 77 c 2
 158 1359 l 2
 158 1402 192 1436 235 1436 c 2
 1397 1436 l 2
 1825 1436 2177 1339 2177 1040 c 0
 2177 929 2110 848 2008 788 c 0
 1995 780 1996 763 2011 757 c 0
 2165 694 2275 590 2275 424 c 0
 2275 96 1851 0 1352 0 c 2
942 866 m 2
 1231 866 l 1
 1393 870 1462 889 1462 989 c 0
 1462 1124 1317 1124 1151 1124 c 2
 942 1124 l 2
 922 1124 905 1107 905 1087 c 2
 905 903 l 2
 905 883 922 866 942 866 c 2
942 365 m 2
 1163 365 l 2
 1350 365 1511 375 1511 510 c 0
 1511 631 1425 643 1214 643 c 2
 942 643 l 2
 922 643 905 626 905 606 c 2
 905 402 l 2
 905 382 922 365 942 365 c 2
EndSplineSet
EndChar

StartChar: C
Encoding: 67 67 11
Width: 2478
Flags: HW
LayerCount: 2
Fore
SplineSet
2030 457 m 1
 2195 431 l 1
 2211 392 l 1
 2041 48 1594 -41 1230 -41 c 0
 772 -41 180 102 180 721 c 0
 180 1293 772 1475 1230 1475 c 0
 1594 1475 2037 1362 2209 1033 c 1
 2195 996 l 1
 2026 972 l 1
 1992 967 l 1
 1987 977 1981 986 1975 995 c 1
 1975 995 l 1
 1837 1211 1528 1299 1230 1299 c 0
 830 1299 409 1139 409 721 c 0
 409 231 843 135 1230 135 c 0
 1521 135 1836 189 1976 420 c 0
 1985 434 1992 447 1999 462 c 1
 2030 457 l 1
EndSplineSet
EndChar

StartChar: D
Encoding: 68 68 12
Width: 2443
Flags: HW
LayerCount: 2
Fore
SplineSet
1209 0 m 2
 227 0 l 2
 184 0 160 24 160 67 c 2
 160 1371 l 2
 160 1414 184 1438 227 1438 c 2
 1209 1438 l 2
 1670 1438 2150 1293 2150 721 c 0
 2150 102 1670 0 1209 0 c 2
388 175 m 1
 1209 175 l 2
 1599 175 1921 231 1921 721 c 0
 1921 1139 1612 1263 1209 1263 c 2
 388 1263 l 1
 388 175 l 1
EndSplineSet
EndChar

StartChar: E
Encoding: 69 69 13
Width: 2384
Flags: HW
LayerCount: 2
Fore
SplineSet
512 0 m 2
 469 0 445 24 445 67 c 2
 445 1361 l 2
 445 1404 469 1438 512 1438 c 2
 1754 1438 l 2
 1797 1438 1821 1404 1821 1361 c 2
 1821 1328 l 2
 1821 1285 1797 1251 1754 1251 c 2
 700 1251 l 2
 680 1251 673 1246 673 1226 c 2
 673 828 l 1
 1624 828 l 2
 1667 828 1691 794 1691 751 c 2
 1691 724 l 2
 1691 681 1667 647 1624 647 c 2
 673 647 l 1
 673 187 l 1
 1754 187 l 2
 1797 187 1821 153 1821 110 c 2
 1821 77 l 2
 1821 34 1797 0 1754 0 c 2
 512 0 l 2
EndSplineSet
EndChar

StartChar: F
Encoding: 70 70 14
Width: 2159
Flags: HW
LayerCount: 2
Fore
SplineSet
673 67 m 2
 673 24 649 0 606 0 c 2
 512 0 l 2
 469 0 445 24 445 67 c 2
 445 1361 l 2
 445 1404 469 1438 512 1438 c 2
 1754 1438 l 2
 1797 1438 1821 1404 1821 1361 c 2
 1821 1328 l 2
 1821 1285 1797 1251 1754 1251 c 2
 700 1251 l 2
 680 1251 673 1246 673 1226 c 2
 673 775 l 1
 1624 775 l 2
 1667 775 1691 741 1691 698 c 2
 1691 671 l 2
 1691 628 1667 594 1624 594 c 2
 673 594 l 1
 673 67 l 2
EndSplineSet
EndChar

StartChar: G
Encoding: 71 71 15
Width: 2482
Flags: HW
LayerCount: 2
Fore
SplineSet
1233 -41 m 0
 657 -41 115 160 115 719 c 0
 115 1331 733 1475 1333 1475 c 0
 1796 1475 2320 1362 2345 967 c 0
 2345 960 2345 957 2345 953 c 0
 2344 947 2338 942 2332 941 c 2
 1826 906 l 2
 1760 901 1730 915 1691 967 c 0
 1637 1037 1536 1073 1333 1073 c 1
 1085 1067 932 987 932 719 c 0
 932 465 1075 358 1317 358 c 0
 1506 358 1635 400 1687 512 c 0
 1694 527 1681 547 1665 547 c 2
 1472 547 l 2
 1429 547 1395 581 1395 624 c 2
 1395 703 l 2
 1395 746 1429 780 1472 780 c 2
 2264 780 l 2
 2307 780 2341 746 2341 703 c 2
 2341 77 l 2
 2341 34 2307 0 2264 0 c 2
 2252 0 l 2
 2206 0 2163 28 2144 70 c 2
 2055 274 l 2
 2049 289 2031 290 2023 276 c 0
 1850 -20 1407 -41 1233 -41 c 0
EndSplineSet
EndChar

StartChar: H
Encoding: 72 72 16
Width: 2452
Flags: HW
LayerCount: 2
Fore
SplineSet
595 67 m 2
 595 24 571 0 528 0 c 2
 434 0 l 2
 391 0 367 24 367 67 c 2
 367 1371 l 2
 367 1414 391 1438 434 1438 c 2
 528 1438 l 2
 571 1438 595 1414 595 1371 c 2
 595 833 l 1
 1857 833 l 1
 1857 1371 l 2
 1857 1414 1881 1438 1924 1438 c 2
 2018 1438 l 2
 2061 1438 2085 1414 2085 1371 c 2
 2085 67 l 2
 2085 24 2061 0 2018 0 c 2
 1924 0 l 2
 1881 0 1857 24 1857 67 c 2
 1857 650 l 1
 595 650 l 1
 595 67 l 2
EndSplineSet
EndChar

StartChar: I
Encoding: 73 73 17
Width: 1080
Flags: HW
LayerCount: 2
Fore
SplineSet
493 1438 m 2
 587 1438 l 2
 630 1438 654 1414 654 1371 c 2
 654 67 l 2
 654 24 630 0 587 0 c 2
 493 0 l 2
 450 0 426 24 426 67 c 2
 426 1371 l 2
 426 1414 450 1438 493 1438 c 2
EndSplineSet
EndChar

StartChar: J
Encoding: 74 74 18
Width: 1432
Flags: HW
LayerCount: 2
Fore
SplineSet
1095 551 m 2
 1095 -68 636 -141 175 -141 c 0
 160 -141 144 -141 144 -49 c 0
 144 35 162 35 175 35 c 0
 565 35 867 61 867 551 c 2
 867 1371 l 2
 867 1414 891 1438 934 1438 c 2
 1028 1438 l 2
 1071 1438 1095 1414 1095 1371 c 2
 1095 551 l 2
EndSplineSet
EndChar

StartChar: K
Encoding: 75 75 19
Width: 2345
Flags: HW
LayerCount: 2
Fore
SplineSet
388 67 m 2
 388 24 364 0 321 0 c 2
 227 0 l 2
 184 0 160 24 160 67 c 2
 160 1371 l 2
 160 1414 184 1438 227 1438 c 2
 321 1438 l 2
 364 1438 388 1414 388 1371 c 2
 388 762 l 1
 1045 1376 l 2
 1082 1410 1111 1439 1154 1438 c 2
 1311 1436 l 2
 1354 1435 1374 1399 1336 1365 c 2
 660 748 l 1
 1408 67 l 2
 1446 32 1429 0 1386 0 c 2
 1218 0 l 2
 1175 0 1145 32 1106 67 c 2
 388 735 l 1
 388 67 l 2
EndSplineSet
EndChar

StartChar: L
Encoding: 76 76 20
Width: 2091
Flags: HW
LayerCount: 2
Fore
SplineSet
1145 0 m 2
 227 0 l 2
 184 0 160 24 160 67 c 2
 160 1371 l 2
 160 1414 184 1438 227 1438 c 2
 321 1438 l 2
 364 1438 388 1414 388 1371 c 2
 388 206 l 2
 388 186 405 169 425 169 c 2
 1145 169 l 2
 1188 169 1212 145 1212 102 c 2
 1212 67 l 2
 1212 24 1188 0 1145 0 c 2
EndSplineSet
EndChar

StartChar: M
Encoding: 77 77 21
Width: 2901
Flags: HW
LayerCount: 2
Fore
SplineSet
610 67 m 1
 607 24 582 0 539 0 c 2
 445 0 l 2
 402 0 379 24 382 67 c 2
 497 1371 l 2
 500 1412 522 1435 561 1438 c 1
 669 1438 l 1
 709 1435 744 1412 768 1371 c 2
 1442 195 l 1
 2137 1371 l 2
 2161 1412 2197 1435 2237 1438 c 1
 2345 1438 l 1
 2384 1435 2407 1412 2410 1371 c 2
 2518 67 l 2
 2521 24 2499 0 2456 0 c 2
 2362 0 l 2
 2319 0 2293 24 2290 67 c 2
 2202 1097 l 1
 1594 67 l 2
 1570 26 1534 2 1493 0 c 1
 1387 0 l 1
 1346 2 1311 26 1287 67 c 2
 705 1081 l 1
 610 67 l 1
EndSplineSet
EndChar

StartChar: N
Encoding: 78 78 22
Width: 2628
Flags: HW
LayerCount: 2
Fore
SplineSet
679 67 m 2
 679 24 655 0 612 0 c 2
 518 0 l 2
 475 0 451 24 451 67 c 2
 451 1371 l 2
 451 1414 475 1438 518 1438 c 2
 612 1438 l 2
 634 1438 651 1432 662 1420 c 1
 1949 296 l 1
 1949 1371 l 2
 1949 1414 1973 1438 2016 1438 c 2
 2110 1438 l 2
 2153 1438 2177 1414 2177 1371 c 2
 2177 67 l 2
 2177 24 2153 0 2110 0 c 2
 2016 0 l 2
 1994 0 1976 6 1965 19 c 1
 679 1134 l 1
 679 67 l 2
EndSplineSet
EndChar

StartChar: O
Encoding: 79 79 23
Width: 2721
Flags: HW
LayerCount: 2
Fore
SplineSet
310 721 m 0
 310 1293 902 1475 1360 1475 c 0
 1821 1475 2411 1293 2411 721 c 0
 2411 102 1821 -41 1360 -41 c 0
 902 -41 310 102 310 721 c 0
1360 135 m 0
 1750 135 2182 231 2182 721 c 0
 2182 1139 1763 1299 1360 1299 c 0
 960 1299 539 1139 539 721 c 0
 539 231 973 135 1360 135 c 0
EndSplineSet
EndChar

StartChar: P
Encoding: 80 80 24
Width: 2359
Flags: HW
LayerCount: 2
Fore
SplineSet
227 0 m 2
 184 0 160 24 160 67 c 2
 160 1371 l 2
 160 1414 184 1438 227 1438 c 2
 1019 1438 l 2
 1480 1438 1990 1438 1990 964 c 0
 1990 444 1609 442 1078 442 c 2
 388 442 l 1
 388 67 l 2
 388 24 364 0 321 0 c 2
 227 0 l 2
388 618 m 1
 1069 618 l 2
 1566 618 1761 618 1761 964 c 0
 1761 1261 1422 1262 1019 1262 c 2
 388 1262 l 1
 388 618 l 1
EndSplineSet
EndChar

StartChar: Q
Encoding: 81 81 25
Width: 2712
Flags: HW
LayerCount: 2
Fore
SplineSet
2597 721 m 0
 2597 72 1886 -41 1356 -41 c 0
 825 -41 115 72 115 721 c 0
 115 1323 825 1475 1356 1475 c 0
 1886 1475 2597 1323 2597 721 c 0
973 721 m 0
 973 438 1120 356 1356 356 c 0
 1591 356 1739 438 1739 721 c 0
 1739 1004 1591 1085 1356 1085 c 0
 1120 1085 973 1004 973 721 c 0
EndSplineSet
EndChar

StartChar: R
Encoding: 82 82 26
Width: 2478
Flags: HW
LayerCount: 2
Fore
SplineSet
388 708 m 1
 1069 708 l 2
 1566 708 1761 708 1761 1014 c 0
 1761 1262 1467 1262 1019 1262 c 2
 388 1262 l 1
 388 708 l 1
388 67 m 2
 388 24 364 0 321 0 c 2
 227 0 l 2
 184 0 160 24 160 67 c 2
 160 1371 l 2
 160 1414 184 1438 227 1438 c 2
 1019 1438 l 2
 1545 1438 1990 1439 1990 1014 c 0
 1990 718 1853 627 1630 583 c 1
 1679 566 1815 534 1898 347 c 2
 2022 67 l 1
 2044 27 2004 0 1961 0 c 2
 1856 0 l 2
 1813 0 1805 28 1783 67 c 1
 1659 333 l 2
 1564 536 1337 538 1245 538 c 2
 388 538 l 1
 388 67 l 2
EndSplineSet
EndChar

StartChar: S
Encoding: 83 83 27
Width: 2505
Flags: HW
LayerCount: 2
Fore
SplineSet
1227 -41 m 0
 887 -41 535 -11 207 106 c 0
 169 119 150 165 167 201 c 2
 274 428 l 2
 293 468 337 488 380 475 c 0
 703 377 1002 348 1370 348 c 0
 1460 348 1552 358 1552 410 c 0
 1552 471 1468 473 1413 477 c 0
 836 514 160 496 160 979 c 0
 160 1430 678 1475 1180 1475 c 0
 1583 1475 1916 1431 2182 1329 c 0
 2219 1315 2237 1268 2219 1233 c 2
 2113 1024 l 2
 2092 984 2048 966 2005 980 c 0
 1707 1079 1349 1092 1221 1092 c 0
 1135 1092 952 1096 952 1030 c 0
 952 858 2380 1130 2380 459 c 0
 2380 178 2195 27 1679 -23 c 0
 1550 -35 1399 -41 1227 -41 c 0
EndSplineSet
EndChar

StartChar: T
Encoding: 84 84 28
Width: 2142
Flags: HW
LayerCount: 2
Fore
SplineSet
342 1328 m 2
 342 1361 l 2
 342 1404 366 1438 409 1438 c 2
 1754 1438 l 2
 1797 1438 1821 1404 1821 1361 c 2
 1821 1328 l 2
 1821 1285 1797 1251 1754 1251 c 2
 1224 1251 l 2
 1204 1251 1197 1246 1197 1226 c 2
 1197 67 l 2
 1197 24 1173 0 1130 0 c 2
 1036 0 l 2
 993 0 969 24 969 67 c 2
 969 1226 l 2
 969 1246 962 1251 942 1251 c 2
 409 1251 l 2
 366 1251 342 1285 342 1328 c 2
EndSplineSet
EndChar

StartChar: U
Encoding: 85 85 29
Width: 2677
Flags: HW
LayerCount: 2
Fore
SplineSet
1240 -41 m 0
 782 -41 190 32 190 651 c 2
 190 1371 l 2
 190 1414 215 1438 258 1438 c 2
 352 1438 l 2
 395 1438 419 1414 419 1371 c 2
 419 651 l 2
 419 161 853 135 1240 135 c 0
 1630 135 2062 161 2062 651 c 2
 2062 1371 l 2
 2062 1414 2086 1438 2129 1438 c 2
 2223 1438 l 2
 2266 1438 2290 1414 2290 1371 c 2
 2290 651 l 2
 2290 32 1701 -41 1240 -41 c 0
EndSplineSet
EndChar

StartChar: V
Encoding: 86 86 30
Width: 2487
Flags: HW
LayerCount: 2
Fore
SplineSet
1328 0 m 0
 1325 0 1323 0 1220 0 c 1
 1180 3 1145 26 1121 67 c 2
 375 1371 l 2
 350 1414 360 1438 403 1438 c 2
 527 1438 l 2
 570 1438 609 1414 633 1371 c 2
 1275 192 l 1
 1865 1371 l 2
 1886 1414 1924 1438 1967 1438 c 2
 2081 1438 l 2
 2124 1438 2135 1414 2113 1371 c 2
 1422 67 l 2
 1401 26 1368 3 1328 0 c 0
EndSplineSet
EndChar

StartChar: W
Encoding: 87 87 31
Width: 3414
Flags: HW
LayerCount: 2
Fore
SplineSet
1146 67 m 2
 1126 26 1092 3 1052 0 c 1
 934 0 l 1
 894 3 859 26 835 67 c 1
 169 1371 l 1
 144 1414 154 1438 197 1438 c 2
 321 1438 l 2
 364 1438 403 1414 427 1371 c 1
 989 192 l 1
 1549 1371 l 2
 1570 1414 1608 1438 1646 1438 c 2
 1770 1438 l 2
 1813 1438 1852 1414 1876 1371 c 1
 2488 192 l 1
 2998 1371 l 1
 3019 1414 3057 1438 3100 1438 c 2
 3214 1438 l 2
 3257 1438 3268 1414 3246 1371 c 1
 2635 67 l 1
 2614 26 2581 3 2541 0 c 1
 2423 0 l 1
 2383 3 2346 25 2324 67 c 2
 1711 1251 l 1
 1146 67 l 2
EndSplineSet
EndChar

StartChar: X
Encoding: 88 88 32
Width: 2597
Flags: HW
LayerCount: 2
Fore
SplineSet
720 67 m 1
 681 24 636 0 593 0 c 2
 459 0 l 2
 436 0 425 7 425 20 c 0
 425 31 434 47 452 67 c 1
 1180 748 l 1
 556 1371 l 2
 535 1392 524 1409 524 1420 c 0
 524 1432 535 1438 557 1438 c 2
 701 1438 l 2
 744 1438 791 1414 834 1371 c 2
 1324 882 l 1
 1846 1371 l 1
 1885 1414 1930 1438 1973 1438 c 2
 2117 1438 l 2
 2140 1438 2151 1431 2151 1418 c 0
 2151 1407 2142 1391 2124 1371 c 1
 1456 750 l 1
 2140 67 l 2
 2161 46 2172 29 2172 18 c 0
 2172 6 2161 0 2139 0 c 2
 1995 0 l 2
 1952 0 1905 24 1862 67 c 2
 1312 617 l 1
 720 67 l 1
EndSplineSet
EndChar

StartChar: Y
Encoding: 89 89 33
Width: 2392
Flags: HW
LayerCount: 2
Fore
SplineSet
1366 0 m 2
 1272 0 l 2
 1229 0 1205 24 1205 67 c 2
 1205 713 l 1
 586 1371 l 1
 564 1391 554 1409 554 1420 c 0
 554 1432 565 1438 587 1438 c 2
 731 1438 l 2
 774 1438 821 1414 864 1371 c 1
 1324 882 l 1
 1776 1371 l 2
 1815 1414 1860 1438 1903 1438 c 2
 2047 1438 l 2
 2070 1438 2081 1431 2081 1418 c 0
 2081 1407 2074 1389 2054 1371 c 1
 1433 717 l 1
 1433 67 l 2
 1433 24 1409 0 1366 0 c 2
EndSplineSet
EndChar

StartChar: Z
Encoding: 90 90 34
Width: 2159
Flags: HW
LayerCount: 2
Fore
SplineSet
1667 0 m 2
 409 0 l 2
 366 0 342 34 342 77 c 2
 342 110 l 2
 342 134 349 155 363 169 c 2
 1399 1226 l 1
 1399 1246 1392 1251 1372 1251 c 2
 419 1251 l 2
 376 1251 352 1285 352 1328 c 2
 352 1361 l 2
 352 1404 376 1438 419 1438 c 2
 1647 1438 l 2
 1690 1438 1714 1404 1714 1361 c 2
 1714 1328 l 2
 1714 1285 1696 1240 1681 1226 c 2
 663 187 l 1
 1667 187 l 2
 1710 187 1734 153 1734 110 c 2
 1734 77 l 2
 1734 34 1710 0 1667 0 c 2
EndSplineSet
EndChar

StartChar: bracketleft
Encoding: 91 91 35
Width: 1598
Flags: HW
LayerCount: 2
Fore
SplineSet
1361 -205 m 2
 237 -205 l 2
 194 -205 160 -171 160 -128 c 2
 160 1570 l 2
 160 1613 194 1647 237 1647 c 2
 1361 1647 l 2
 1404 1647 1438 1613 1438 1570 c 2
 1438 1341 l 2
 1438 1298 1404 1264 1361 1264 c 2
 987 1264 l 2
 967 1264 950 1247 950 1227 c 2
 950 215 l 2
 950 195 967 178 987 178 c 2
 1361 178 l 2
 1404 178 1438 144 1438 101 c 2
 1438 -128 l 2
 1438 -171 1404 -205 1361 -205 c 2
EndSplineSet
EndChar

StartChar: backslash
Encoding: 92 92 36
Width: 1408
Flags: HW
LayerCount: 2
Fore
SplineSet
1326 -205 m 2
 794 -207 l 2
 772 -207 752 -193 744 -172 c 2
 57 1612 l 2
 51 1629 63 1647 81 1647 c 2
 613 1647 l 2
 635 1647 655 1633 663 1612 c 2
 1350 -170 l 2
 1356 -187 1344 -205 1326 -205 c 2
EndSplineSet
EndChar

StartChar: bracketright
Encoding: 93 93 37
Width: 1598
Flags: HW
LayerCount: 2
Fore
SplineSet
237 1647 m 2
 1361 1647 l 2
 1404 1647 1438 1613 1438 1570 c 2
 1438 -128 l 2
 1438 -171 1404 -205 1361 -205 c 2
 237 -205 l 2
 194 -205 160 -171 160 -128 c 2
 160 101 l 2
 160 144 194 178 237 178 c 2
 610 178 l 2
 630 178 647 195 647 215 c 2
 647 1227 l 2
 647 1247 630 1264 610 1264 c 2
 237 1264 l 2
 194 1264 160 1298 160 1341 c 2
 160 1570 l 2
 160 1613 194 1647 237 1647 c 2
EndSplineSet
EndChar

StartChar: grave
Encoding: 96 96 38
Width: 725
Flags: HW
LayerCount: 2
Fore
SplineSet
442 1401 m 2
 600 1266 l 2
 621 1249 609 1217 582 1217 c 2
 550 1217 l 2
 504 1217 445 1231 405 1252 c 2
 90 1415 l 2
 73 1424 79 1450 99 1450 c 2
 306 1450 l 2
 353 1450 406 1431 442 1401 c 2
EndSplineSet
EndChar

StartChar: a
Encoding: 97 97 39
Width: 2020
Flags: HW
LayerCount: 2
Fore
SplineSet
1528 494 m 0
 1528 508 1528 520 1517 520 c 0
 1514 520 1335 500 1330 499 c 0
 763 437 513 357 513 264 c 0
 513 169 593 115 801 115 c 0
 1145 115 1528 304 1528 494 c 0
1530 269 m 0
 1415 116 1162 -41 796 -41 c 0
 440 -41 276 62 276 238 c 0
 276 646 1525 594 1525 639 c 2
 1525 659 l 2
 1525 814 1515 894 1022 894 c 0
 938 894 644 893 553 800 c 0
 532 778 498 746 477 746 c 0
 471 746 474 747 465 748 c 2
 335 765 l 1
 318 766 303 785 303 802 c 0
 303 804 303 805 303 807 c 0
 305 820 309 833 314 846 c 0
 374 989 613 1053 1020 1053 c 0
 1607 1053 1754 929 1754 631 c 2
 1754 63 l 2
 1754 28 1738 0 1703 0 c 2
 1685 0 l 2
 1645 0 1633 60 1618 100 c 0
 1594 164 1571 229 1560 252 c 0
 1555 261 1552 280 1546 280 c 0
 1541 280 1536 276 1530 269 c 0
EndSplineSet
EndChar

StartChar: b
Encoding: 98 98 40
Width: 2026
Flags: HW
LayerCount: 2
Fore
SplineSet
1709 504 m 0
 1709 107 1343 -41 1049 -41 c 0
 844 -41 619 48 505 220 c 1
 480 143 440 0 384 0 c 2
 370 0 l 2
 327 0 317 24 317 67 c 2
 317 1371 l 2
 317 1414 341 1438 384 1438 c 2
 478 1438 l 2
 521 1438 545 1414 545 1371 c 2
 545 847 l 1
 652 986 827 1053 1031 1053 c 0
 1355 1053 1709 912 1709 504 c 0
1014 119 m 0
 1268 119 1480 243 1480 504 c 0
 1480 788 1252 893 1014 893 c 0
 772 893 544 786 545 504 c 1
 544 246 756 119 1014 119 c 0
EndSplineSet
EndChar

StartChar: c
Encoding: 99 99 41
Width: 1821
Flags: HW
LayerCount: 2
Fore
SplineSet
1365 82 m 1
 1228 -4 1026 -41 879 -41 c 0
 580 -41 160 106 160 504 c 0
 160 912 550 1053 879 1053 c 0
 1048 1053 1260 1015 1395 920 c 1
 1336 770 l 1
 1269 827 1044 893 878 893 c 0
 636 893 388 786 389 504 c 1
 388 246 620 119 878 119 c 0
 1041 119 1253 188 1319 236 c 1
 1365 82 l 1
EndSplineSet
EndChar

StartChar: d
Encoding: 100 100 42
Width: 2026
Flags: HW
LayerCount: 2
Fore
SplineSet
317 504 m 0
 317 912 671 1053 995 1053 c 0
 1199 1053 1374 986 1481 847 c 1
 1481 1371 l 2
 1481 1414 1505 1438 1548 1438 c 2
 1642 1438 l 2
 1685 1438 1709 1414 1709 1371 c 2
 1709 67 l 2
 1709 24 1699 0 1656 0 c 2
 1642 0 l 2
 1586 0 1546 143 1521 220 c 1
 1407 48 1182 -41 977 -41 c 0
 683 -41 317 107 317 504 c 0
1012 119 m 0
 1270 119 1482 246 1481 504 c 1
 1482 786 1254 893 1012 893 c 0
 774 893 546 788 546 504 c 0
 546 243 758 119 1012 119 c 0
EndSplineSet
EndChar

StartChar: e
Encoding: 101 101 43
Width: 1923
Flags: HW
LayerCount: 2
Fore
SplineSet
1006 -41 m 0
 608 -41 119 37 119 504 c 0
 119 961 602 1053 997 1053 c 0
 1352 1053 1806 936 1806 520 c 0
 1806 506 1805 496 1804 484 c 0
 1802 466 1786 451 1767 451 c 2
 777 451 l 2
 761 451 752 437 752 421 c 0
 752 420 752 419 752 418 c 0
 761 251 920 196 1043 196 c 0
 1280 196 1271 301 1327 301 c 2
 1725 301 l 2
 1772 301 1784 261 1784 230 c 0
 1784 226 1784 222 1783 219 c 0
 1735 33 1457 -41 1006 -41 c 0
765 615 m 2
 1244 615 l 2
 1255 615 1257 624 1257 634 c 2
 1257 643 l 1
 1248 745 1148 814 1008 814 c 0
 868 814 759 739 753 648 c 1
 753 636 l 2
 753 625 755 615 765 615 c 2
EndSplineSet
EndChar

StartChar: f
Encoding: 102 102 44
Width: 1538
Flags: HW
LayerCount: 2
Fore
SplineSet
654 77 m 2
 654 34 620 0 577 0 c 2
 503 0 l 2
 460 0 426 34 426 77 c 2
 426 821 l 2
 426 841 426 858 406 858 c 2
 254 858 l 2
 211 858 187 867 187 910 c 2
 187 945 l 2
 187 988 211 1006 254 1006 c 2
 404 1006 l 2
 426 1006 427 1019 427 1041 c 0
 427 1381 643 1475 858 1475 c 0
 972 1475 1094 1441 1112 1438 c 1
 1140 1431 1162 1403 1162 1375 c 2
 1162 1326 l 2
 1162 1289 1155 1275 1121 1275 c 0
 1116 1275 980 1295 914 1295 c 0
 693 1295 654 1229 654 1090 c 2
 654 1012 l 2
 654 1009 657 1006 660 1006 c 2
 1071 1006 l 2
 1114 1006 1138 994 1138 951 c 2
 1138 910 l 2
 1138 867 1114 858 1071 858 c 2
 677 858 l 2
 657 858 654 841 654 821 c 2
 654 77 l 2
EndSplineSet
EndChar

StartChar: g
Encoding: 103 103 45
Width: 1745
Flags: HW
LayerCount: 2
Fore
SplineSet
582 735 m 0
 582 649 659 582 809 582 c 0
 963 582 1038 645 1038 723 c 0
 1038 807 956 881 809 881 c 0
 655 881 582 813 582 735 c 0
1518 731 m 0
 1518 518 1360 322 850 322 c 0
 723 322 611 333 527 351 c 0
 509 355 484 343 476 327 c 0
 468 312 461 295 461 279 c 0
 461 215 569 207 764 207 c 2
 1049 207 l 2
 1507 207 1638 -23 1638 -238 c 0
 1638 -494 1501 -662 829 -662 c 0
 342 -662 115 -557 115 -406 c 0
 115 -332 173 -221 304 -141 c 0
 317 -133 316 -116 302 -109 c 0
 181 -52 98 54 98 152 c 0
 98 256 162 354 249 408 c 0
 265 418 266 437 252 449 c 0
 158 526 94 631 94 731 c 0
 94 934 285 1114 809 1114 c 0
 869 1114 919 1105 967 1100 c 0
 987 1097 1007 1112 1011 1131 c 2
 1055 1359 l 2
 1063 1402 1102 1434 1146 1434 c 2
 1383 1434 l 2
 1417 1434 1437 1397 1419 1369 c 2
 1239 1079 l 2
 1228 1062 1235 1041 1253 1033 c 0
 1408 968 1518 861 1518 731 c 0
809 -381 m 0
 1229 -381 1239 -332 1239 -283 c 0
 1239 -240 1182 -193 1083 -193 c 2
 637 -193 l 2
 621 -193 591 -203 577 -214 c 0
 541 -242 520 -275 520 -301 c 0
 520 -346 618 -381 809 -381 c 0
EndSplineSet
EndChar

StartChar: h
Encoding: 104 104 46
Width: 2034
Flags: HW
LayerCount: 2
Fore
SplineSet
388 67 m 2
 388 24 365 0 322 0 c 2
 227 0 l 2
 184 0 160 24 160 67 c 2
 160 1371 l 2
 160 1414 184 1438 227 1438 c 2
 321 1438 l 2
 364 1438 388 1414 388 1371 c 2
 388 837 l 1
 518 990 699 1053 885 1053 c 0
 1197 1053 1405 888 1405 552 c 2
 1405 67 l 2
 1405 24 1381 0 1338 0 c 2
 1244 0 l 2
 1201 0 1177 24 1177 67 c 2
 1177 606 l 2
 1177 831 1028 902 842 902 c 0
 645 902 388 739 388 606 c 2
 388 67 l 2
EndSplineSet
EndChar

StartChar: i
Encoding: 105 105 47
Width: 946
Flags: HW
LayerCount: 2
Fore
SplineSet
274 1410 m 0
 373 1410 405 1339 405 1291 c 0
 405 1240 364 1179 274 1179 c 0
 176 1179 136 1244 136 1291 c 0
 136 1338 160 1410 274 1410 c 0
227 1006 m 2
 321 1006 l 2
 364 1006 388 982 388 939 c 2
 388 67 l 2
 388 24 364 0 321 0 c 2
 227 0 l 2
 184 0 160 24 160 67 c 2
 160 939 l 2
 160 982 184 1006 227 1006 c 2
EndSplineSet
EndChar

StartChar: j
Encoding: 106 106 48
Width: 1260
Flags: HW
LayerCount: 2
Fore
SplineSet
791 1536 m 0
 1020 1536 1135 1440 1135 1343 c 0
 1135 1294 1106 1247 1049 1210 c 1
 991 1174 903 1151 791 1151 c 0
 563 1151 446 1247 446 1343 c 0
 446 1391 475 1440 532 1477 c 1
 590 1513 676 1536 791 1536 c 0
393 -455 m 0
 303 -455 218 -447 143 -437 c 0
 100 -431 66 -393 66 -349 c 2
 66 -195 l 2
 66 -154 101 -123 142 -128 c 0
 177 -132 217 -135 258 -135 c 0
 295 -135 332 -133 367 -125 c 0
 401 -117 432 -104 453 -84 c 1
 473 -63 487 -37 487 0 c 2
 487 929 l 2
 487 972 521 1006 564 1006 c 2
 1017 1006 l 2
 1060 1006 1094 972 1094 929 c 2
 1094 12 l 2
 1094 -35 1087 -76 1077 -115 c 1
 1012 -344 768 -430 518 -451 c 0
 477 -455 434 -455 393 -455 c 0
EndSplineSet
EndChar

StartChar: k
Encoding: 107 107 49
Width: 2007
Flags: HW
LayerCount: 2
Fore
SplineSet
388 67 m 2
 388 24 364 0 321 0 c 2
 227 0 l 2
 184 0 160 24 160 67 c 2
 160 1371 l 2
 160 1414 184 1438 227 1438 c 2
 321 1438 l 2
 364 1438 388 1414 388 1371 c 2
 388 465 l 1
 1155 938 l 1
 1208 981 1262 1005 1305 1005 c 2
 1499 1005 l 2
 1542 1005 1542 974 1483 938 c 2
 866 557 l 1
 1547 67 l 2
 1596 31 1588 0 1545 0 c 2
 1381 0 l 2
 1338 0 1297 31 1249 67 c 2
 692 476 l 1
 388 302 l 1
 388 67 l 2
EndSplineSet
EndChar

StartChar: l
Encoding: 108 108 50
Width: 920
Flags: HW
LayerCount: 2
Fore
SplineSet
412 1438 m 2
 506 1438 l 2
 549 1438 573 1414 573 1371 c 2
 573 67 l 2
 573 24 549 0 506 0 c 2
 412 0 l 2
 369 0 345 24 345 67 c 2
 345 1371 l 2
 345 1414 369 1438 412 1438 c 2
EndSplineSet
EndChar

StartChar: m
Encoding: 109 109 51
Width: 3041
Flags: HW
LayerCount: 2
Fore
SplineSet
388 67 m 2
 388 24 365 0 322 0 c 2
 227 0 l 2
 184 0 160 24 160 67 c 2
 160 929 l 2
 160 972 174 1006 217 1006 c 2
 237 1006 l 2
 284 1006 306 992 317 942 c 2
 344 824 l 1
 349 816 351 811 359 811 c 0
 367 811 373 819 379 826 c 0
 509 987 695 1053 885 1053 c 0
 1115 1053 1289 963 1364 781 c 1
 1380 803 1394 823 1397 826 c 0
 1527 987 1713 1053 1903 1053 c 0
 2215 1053 2423 888 2423 552 c 2
 2423 67 l 2
 2423 24 2399 0 2356 0 c 2
 2262 0 l 2
 2219 0 2195 24 2195 67 c 2
 2195 606 l 2
 2195 831 2046 902 1860 902 c 0
 1663 902 1407 739 1407 606 c 0
 1407 602 1406 599 1405 598 c 1
 1406 583 1405 568 1405 67 c 0
 1405 24 1381 0 1338 0 c 2
 1244 0 l 2
 1201 0 1177 24 1177 67 c 2
 1177 606 l 2
 1177 831 1028 902 842 902 c 0
 645 902 388 739 388 606 c 2
 388 67 l 2
EndSplineSet
EndChar

StartChar: n
Encoding: 110 110 52
Width: 2109
Flags: HW
LayerCount: 2
Fore
SplineSet
160 67 m 2
 160 929 l 2
 160 972 174 1006 217 1006 c 2
 237 1006 l 2
 284 1006 306 992 317 942 c 2
 344 824 l 1
 349 816 351 811 359 811 c 0
 367 811 373 819 379 826 c 0
 509 987 695 1053 885 1053 c 0
 1197 1053 1405 888 1405 552 c 2
 1405 67 l 2
 1405 24 1381 0 1338 0 c 2
 1244 0 l 2
 1201 0 1177 24 1177 67 c 2
 1177 606 l 2
 1177 831 1028 902 842 902 c 0
 645 902 388 739 388 606 c 2
 388 67 l 2
 388 24 365 0 322 0 c 2
 227 0 l 2
 184 0 160 24 160 67 c 2
EndSplineSet
EndChar

StartChar: o
Encoding: 111 111 53
Width: 1714
Flags: HW
LayerCount: 2
Fore
SplineSet
1553 504 m 0
 1553 107 1153 -41 859 -41 c 0
 560 -41 160 106 160 504 c 0
 160 912 530 1053 859 1053 c 0
 1183 1053 1553 912 1553 504 c 0
858 119 m 0
 1112 119 1324 243 1324 504 c 0
 1324 788 1096 893 858 893 c 0
 616 893 388 786 389 504 c 1
 388 246 600 119 858 119 c 0
EndSplineSet
EndChar

StartChar: p
Encoding: 112 112 54
Width: 2026
Flags: HW
LayerCount: 2
Fore
SplineSet
1709 507 m 0
 1709 99 1355 -42 1031 -42 c 0
 827 -42 652 25 545 164 c 1
 545 -360 l 2
 545 -403 521 -427 478 -427 c 2
 384 -427 l 2
 341 -427 317 -403 317 -360 c 2
 317 944 l 2
 317 987 327 1011 370 1011 c 2
 384 1011 l 2
 440 1011 480 868 505 791 c 1
 619 963 844 1052 1049 1052 c 0
 1343 1052 1709 904 1709 507 c 0
1014 118 m 0
 1252 118 1480 223 1480 507 c 0
 1480 768 1268 892 1014 892 c 0
 756 892 544 765 545 507 c 1
 544 225 772 118 1014 118 c 0
EndSplineSet
EndChar

StartChar: q
Encoding: 113 113 55
Width: 2026
Flags: HW
LayerCount: 2
Fore
SplineSet
317 507 m 0
 317 904 683 1052 977 1052 c 0
 1182 1052 1407 963 1521 791 c 1
 1546 868 1586 1011 1642 1011 c 2
 1656 1011 l 2
 1699 1011 1709 987 1709 944 c 2
 1709 -360 l 2
 1709 -403 1685 -427 1642 -427 c 2
 1548 -427 l 2
 1505 -427 1481 -403 1481 -360 c 2
 1481 164 l 1
 1374 25 1199 -42 995 -42 c 0
 671 -42 317 99 317 507 c 0
1012 118 m 0
 1254 118 1482 225 1481 507 c 1
 1482 765 1270 892 1012 892 c 0
 758 892 546 768 546 507 c 0
 546 223 774 118 1012 118 c 0
EndSplineSet
EndChar

StartChar: r
Encoding: 114 114 56
Width: 1577
Flags: HW
LayerCount: 2
Fore
SplineSet
160 67 m 2
 160 929 l 2
 160 972 174 1006 217 1006 c 2
 237 1006 l 2
 284 1006 306 992 317 942 c 2
 344 824 l 1
 349 816 351 811 359 811 c 0
 367 811 374 826 379 833 c 0
 453 936 646 1053 836 1053 c 0
 1102 1053 1285 950 1285 642 c 2
 1285 628 l 2
 1285 585 1261 561 1218 561 c 2
 1124 561 l 2
 1081 561 1057 585 1057 628 c 2
 1057 696 l 2
 1057 864 950 902 764 902 c 0
 567 902 388 739 388 606 c 2
 388 67 l 2
 388 24 365 0 322 0 c 2
 227 0 l 2
 184 0 160 24 160 67 c 2
EndSplineSet
EndChar

StartChar: s
Encoding: 115 115 57
Width: 1868
Flags: HW
LayerCount: 2
Fore
SplineSet
913 -41 m 0
 708 -41 395 -18 193 59 c 0
 157 72 138 121 154 155 c 2
 214 281 l 2
 234 322 278 342 321 329 c 0
 543 263 750 242 999 242 c 0
 1106 242 1159 260 1159 299 c 0
 1159 475 143 260 143 698 c 0
 143 1018 645 1053 895 1053 c 0
 1138 1053 1364 1051 1589 963 c 0
 1625 948 1643 901 1625 866 c 2
 1564 751 l 2
 1544 712 1499 694 1456 708 c 0
 1316 757 1186 780 940 780 c 0
 745 780 709 750 709 719 c 0
 709 586 1749 836 1749 307 c 0
 1749 123 1591 10 1227 -27 c 0
 1135 -37 1032 -41 913 -41 c 0
EndSplineSet
EndChar

StartChar: t
Encoding: 116 116 58
Width: 1597
Flags: HW
LayerCount: 2
Fore
SplineSet
315 370 m 2
 315 821 l 2
 315 841 308 848 288 848 c 2
 143 848 l 2
 100 848 76 872 76 915 c 2
 76 939 l 2
 76 982 100 1006 143 1006 c 2
 288 1006 l 2
 308 1006 315 1013 315 1033 c 1
 385 1408 l 2
 393 1450 409 1475 452 1475 c 2
 476 1475 l 2
 519 1475 543 1451 543 1408 c 2
 543 1033 l 2
 543 1013 550 1006 570 1006 c 2
 960 1006 l 2
 1003 1006 1027 982 1027 939 c 2
 1027 915 l 2
 1027 872 1003 848 960 848 c 2
 570 848 l 2
 550 848 543 841 543 821 c 2
 543 325 l 2
 543 187 628 131 779 131 c 0
 883 131 968 154 1029 174 c 0
 1086 193 1113 138 1113 103 c 2
 1113 90 l 2
 1113 48 1098 21 1057 5 c 0
 978 -26 909 -41 744 -41 c 0
 460 -41 315 143 315 370 c 2
EndSplineSet
EndChar

StartChar: u
Encoding: 117 117 59
Width: 2107
Flags: HW
LayerCount: 2
Fore
SplineSet
1405 939 m 2
 1405 77 l 2
 1405 34 1391 0 1348 0 c 2
 1328 0 l 2
 1281 0 1259 14 1248 64 c 2
 1221 182 l 1
 1216 190 1214 195 1206 195 c 0
 1198 195 1192 187 1186 180 c 0
 1056 19 870 -47 680 -47 c 0
 368 -47 160 118 160 454 c 2
 160 939 l 2
 160 982 184 1006 227 1006 c 2
 321 1006 l 2
 364 1006 388 982 388 939 c 2
 388 400 l 2
 388 175 537 104 723 104 c 0
 920 104 1177 267 1177 400 c 2
 1177 939 l 2
 1177 982 1200 1006 1243 1006 c 2
 1338 1006 l 2
 1381 1006 1405 982 1405 939 c 2
EndSplineSet
EndChar

StartChar: v
Encoding: 118 118 60
Width: 2003
Flags: HW
LayerCount: 2
Fore
SplineSet
1130 67 m 1
 1102 27 1064 3 1024 0 c 1
 914 0 l 1
 875 3 841 27 818 67 c 2
 301 939 l 2
 293 954 289 967 289 977 c 0
 289 996 303 1006 331 1006 c 2
 455 1006 l 2
 498 1006 515 982 539 939 c 2
 976 152 l 1
 1373 939 l 2
 1396 985 1424 1006 1467 1006 c 2
 1591 1006 l 2
 1616 1006 1629 998 1629 982 c 0
 1629 971 1623 957 1611 939 c 1
 1130 67 l 1
EndSplineSet
EndChar

StartChar: w
Encoding: 119 119 61
Width: 2748
Flags: HW
LayerCount: 2
Fore
SplineSet
1031 67 m 1
 1003 27 965 3 925 0 c 1
 807 0 l 1
 768 3 734 27 711 67 c 1
 248 939 l 2
 240 954 236 967 236 977 c 0
 236 996 250 1006 278 1006 c 2
 402 1006 l 2
 445 1006 464 983 486 939 c 2
 873 158 l 1
 1240 939 l 2
 1262 986 1291 1006 1334 1006 c 2
 1426 1006 l 1
 1463 1003 1480 980 1502 939 c 2
 1909 158 l 1
 2256 939 l 2
 2277 986 2307 1006 2350 1006 c 2
 2474 1006 l 2
 2499 1006 2512 998 2512 982 c 0
 2512 971 2506 957 2494 939 c 1
 2069 67 l 1
 2041 27 2003 3 1963 0 c 1
 1843 0 l 1
 1804 3 1770 27 1747 67 c 1
 1374 802 l 1
 1031 67 l 1
EndSplineSet
EndChar

StartChar: x
Encoding: 120 120 62
Width: 2367
Flags: HW
LayerCount: 2
Fore
SplineSet
759 494 m 2
 188 958 l 2
 168 974 180 1006 206 1006 c 2
 945 1006 l 2
 992 1006 1045 987 1080 956 c 2
 1205 849 l 2
 1221 835 1245 835 1262 848 c 2
 1396 958 l 1
 1433 987 1486 1006 1533 1006 c 2
 2055 1006 l 2
 2080 1006 2090 975 2070 960 c 2
 1576 595 l 2
 1561 584 1560 561 1575 550 c 2
 2190 48 l 2
 2210 32 2198 0 2172 0 c 2
 1433 0 l 2
 1386 0 1333 20 1298 50 c 2
 1156 173 l 2
 1140 187 1116 187 1099 174 c 2
 933 47 l 2
 896 18 842 0 795 0 c 2
 233 0 l 2
 208 0 198 31 217 46 c 2
 758 449 l 2
 773 460 774 483 759 494 c 2
EndSplineSet
EndChar

StartChar: y
Encoding: 121 121 63
Width: 1907
Flags: HW
LayerCount: 2
Fore
SplineSet
692 -694 m 0
 403 -694 195 -567 195 -342 c 2
 195 -229 l 2
 195 -188 215 -156 256 -156 c 2
 565 -156 l 2
 597 -156 608 -178 608 -208 c 2
 608 -291 l 2
 608 -377 652 -382 700 -382 c 2
 718 -382 l 2
 775 -382 861 -378 861 -268 c 0
 861 -237 821 -174 799 -135 c 2
 162 940 l 2
 158 947 156 955 156 962 c 0
 156 985 174 1006 200 1006 c 2
 714 1006 l 2
 760 1006 805 979 825 937 c 2
 1082 420 l 2
 1084 414 1090 411 1096 411 c 0
 1102 411 1108 415 1111 422 c 2
 1295 934 l 2
 1310 977 1352 1006 1398 1006 c 2
 1776 1006 l 2
 1805 1006 1826 983 1826 957 c 0
 1826 950 1824 943 1821 936 c 2
 1272 -279 l 2
 1153 -541 1008 -694 692 -694 c 0
EndSplineSet
EndChar

StartChar: z
Encoding: 122 122 64
Width: 1714
Flags: HW
LayerCount: 2
Fore
SplineSet
195 0 m 2
 175 0 158 17 158 37 c 2
 158 237 l 2
 158 260 169 283 187 297 c 2
 728 731 l 1
 199 731 l 2
 179 731 162 748 162 768 c 2
 162 969 l 2
 162 989 179 1006 199 1006 c 2
 1487 1006 l 2
 1507 1006 1524 989 1524 969 c 2
 1524 768 l 2
 1524 745 1513 722 1495 707 c 2
 968 274 l 1
 1526 274 l 2
 1546 274 1563 257 1563 237 c 2
 1563 37 l 2
 1563 17 1546 0 1526 0 c 2
 195 0 l 2
EndSplineSet
EndChar

StartChar: braceleft
Encoding: 123 123 65
Width: 1171
Flags: HW
LayerCount: 2
Fore
SplineSet
1012 -46 m 2
 1012 -88 977 -123 935 -123 c 2
 665 -123 l 2
 187 -123 422 478 130 563 c 0
 76 579 54 608 54 664 c 2
 54 756 l 2
 54 812 76 841 130 857 c 0
 422 942 187 1543 665 1543 c 2
 935 1543 l 2
 977 1543 1012 1508 1012 1466 c 2
 1012 1356 l 2
 1012 1304 987 1273 936 1262 c 0
 679 1206 897 848 659 725 c 0
 645 718 645 702 659 695 c 0
 897 572 679 214 936 158 c 0
 987 147 1012 116 1012 64 c 2
 1012 -46 l 2
EndSplineSet
EndChar

StartChar: braceright
Encoding: 125 125 66
Width: 1172
Flags: HW
LayerCount: 2
Fore
SplineSet
1042 563 m 0
 750 478 985 -123 507 -123 c 2
 237 -123 l 2
 195 -123 160 -88 160 -46 c 2
 160 64 l 2
 160 116 185 147 236 158 c 0
 493 214 275 572 513 695 c 0
 527 702 527 718 513 725 c 0
 275 848 493 1206 236 1262 c 0
 185 1273 160 1304 160 1356 c 2
 160 1466 l 2
 160 1508 195 1543 237 1543 c 2
 507 1543 l 2
 985 1543 750 942 1042 857 c 0
 1096 841 1118 812 1118 756 c 2
 1118 664 l 2
 1118 608 1096 579 1042 563 c 0
EndSplineSet
EndChar

StartChar: Eacute
Encoding: 201 201 67
Width: 2384
Flags: HW
LayerCount: 2
Fore
SplineSet
2062 1637 m 2
 2052 1620 2044 1598 2006 1598 c 2
 1856 1598 l 2
 1827 1598 1814 1603 1814 1630 c 0
 1814 1639 1815 1651 1818 1665 c 2
 1881 1975 l 2
 1889 2018 1908 2030 1952 2030 c 2
 2229 2030 l 2
 2249 2030 2257 2018 2257 2002 c 0
 2257 1991 2252 1977 2245 1965 c 2
 2062 1637 l 2
512 0 m 2
 469 0 445 24 445 67 c 2
 445 1361 l 2
 445 1404 469 1438 512 1438 c 2
 1754 1438 l 2
 1797 1438 1821 1404 1821 1361 c 2
 1821 1328 l 2
 1821 1285 1797 1251 1754 1251 c 2
 700 1251 l 2
 680 1251 673 1246 673 1226 c 2
 673 828 l 1
 1624 828 l 2
 1667 828 1691 794 1691 751 c 2
 1691 724 l 2
 1691 681 1667 647 1624 647 c 2
 673 647 l 1
 673 187 l 1
 1754 187 l 2
 1797 187 1821 153 1821 110 c 2
 1821 77 l 2
 1821 34 1797 0 1754 0 c 2
 512 0 l 2
EndSplineSet
EndChar

StartChar: ccedilla
Encoding: 231 231 68
Width: 1821
Flags: HW
LayerCount: 2
Fore
SplineSet
1004 -642 m 0
 890 -642 820 -572 820 -464 c 0
 820 -446 822 -427 826 -408 c 0
 830 -389 851 -372 870 -372 c 2
 933 -373 l 2
 954 -373 967 -389 964 -409 c 0
 961 -427 959 -444 959 -461 c 0
 959 -514 973 -557 1011 -557 c 0
 1058 -557 1084 -464 1084 -377 c 0
 1084 -301 1064 -231 1023 -231 c 0
 1012 -231 998 -238 984 -255 c 0
 965 -277 947 -285 918 -285 c 2
 867 -284 l 2
 848 -284 833 -267 835 -247 c 2
 865 -41 l 1
 567 -36 160 112 160 504 c 0
 160 912 550 1053 879 1053 c 0
 1048 1053 1260 1015 1395 920 c 1
 1336 770 l 1
 1269 827 1044 893 878 893 c 0
 636 893 388 786 389 504 c 1
 388 246 620 119 878 119 c 0
 1041 119 1253 188 1319 236 c 1
 1365 82 l 1
 1257 15 1110 -23 980 -36 c 1
 960 -146 l 2
 956 -169 976 -184 997 -172 c 0
 1018 -161 1040 -156 1060 -156 c 0
 1168 -156 1221 -259 1221 -370 c 0
 1221 -500 1148 -642 1004 -642 c 0
EndSplineSet
EndChar

StartChar: eacute
Encoding: 233 233 69
Width: 1923
Flags: HW
LayerCount: 2
Fore
SplineSet
1236 1205 m 2
 1226 1188 1218 1166 1180 1166 c 2
 1030 1166 l 2
 1001 1166 988 1171 988 1198 c 0
 988 1207 989 1219 992 1233 c 2
 1055 1543 l 2
 1063 1586 1082 1598 1126 1598 c 2
 1403 1598 l 2
 1423 1598 1431 1586 1431 1570 c 0
 1431 1559 1426 1545 1419 1533 c 2
 1236 1205 l 2
1006 -41 m 0
 608 -41 119 37 119 504 c 0
 119 961 602 1053 997 1053 c 0
 1352 1053 1806 936 1806 520 c 0
 1806 506 1805 496 1804 484 c 0
 1802 466 1786 451 1767 451 c 2
 777 451 l 2
 761 451 752 437 752 421 c 0
 752 420 752 419 752 418 c 0
 761 251 920 196 1043 196 c 0
 1280 196 1271 301 1327 301 c 2
 1725 301 l 2
 1772 301 1784 261 1784 230 c 0
 1784 226 1784 222 1783 219 c 0
 1735 33 1457 -41 1006 -41 c 0
765 615 m 2
 1244 615 l 2
 1255 615 1257 624 1257 634 c 2
 1257 643 l 1
 1248 745 1148 814 1008 814 c 0
 868 814 759 739 753 648 c 1
 753 636 l 2
 753 625 755 615 765 615 c 2
EndSplineSet
EndChar

StartChar: acute
Encoding: 180 180 70
Width: 1745
Flags: HW
LayerCount: 2
Fore
SplineSet
1236 1205 m 2
 1226 1188 1218 1166 1180 1166 c 2
 1030 1166 l 2
 1001 1166 988 1171 988 1198 c 0
 988 1207 989 1219 992 1233 c 2
 1055 1543 l 2
 1063 1586 1082 1598 1126 1598 c 2
 1403 1598 l 2
 1423 1598 1431 1586 1431 1570 c 0
 1431 1559 1426 1545 1419 1533 c 2
 1236 1205 l 2
EndSplineSet
EndChar

StartChar: OE
Encoding: 338 338 71
Width: 3690
Flags: HW
LayerCount: 2
Fore
SplineSet
1453 -1 m 0
 919 -1 129 70 129 721 c 0
 129 1291 839 1438 1370 1438 c 2
 3383 1438 l 2
 3425 1438 3460 1403 3460 1361 c 2
 3460 1132 l 2
 3460 1089 3426 1055 3383 1055 c 2
 2486 1055 l 2
 2466 1055 2449 1038 2449 1018 c 2
 2449 918 l 2
 2449 898 2466 881 2486 881 c 2
 3193 881 l 2
 3236 881 3270 847 3270 804 c 2
 3270 655 l 2
 3270 612 3236 578 3193 578 c 2
 2486 578 l 2
 2466 578 2449 561 2449 541 c 2
 2449 414 l 2
 2449 394 2466 377 2486 377 c 2
 3460 377 l 2
 3503 377 3537 343 3537 300 c 2
 3537 77 l 2
 3537 34 3503 0 3460 0 c 0
 1461 0 1526 -1 1453 -1 c 0
987 721 m 0
 987 454 1150 376 1410 376 c 2
 1622 376 l 2
 1642 376 1659 393 1659 413 c 2
 1659 1028 l 2
 1659 1048 1642 1065 1622 1065 c 2
 1410 1065 l 2
 1150 1065 987 988 987 721 c 0
EndSplineSet
EndChar

StartChar: fraction
Encoding: 8260 8260 72
Width: 1409
Flags: HW
LayerCount: 2
Fore
SplineSet
995 1647 m 2
 1327 1647 l 2
 1344 1647 1355 1629 1348 1614 c 2
 467 -174 l 2
 458 -194 436 -207 414 -207 c 2
 82 -205 l 2
 65 -205 54 -187 61 -172 c 2
 942 1614 l 2
 951 1634 973 1647 995 1647 c 2
EndSplineSet
EndChar

StartChar: circumflex
Encoding: 710 710 73
Width: 953
Flags: HW
LayerCount: 2
Fore
SplineSet
445 1317 m 2
 335 1255 l 2
 295 1232 237 1217 191 1217 c 2
 158 1217 l 2
 130 1217 117 1250 138 1269 c 2
 301 1418 l 2
 336 1450 388 1470 435 1470 c 2
 518 1470 l 2
 565 1470 617 1450 652 1418 c 2
 815 1269 l 2
 836 1250 823 1217 795 1217 c 2
 762 1217 l 2
 716 1217 658 1232 618 1255 c 2
 509 1317 l 2
 490 1328 464 1328 445 1317 c 2
EndSplineSet
EndChar

StartChar: cedilla
Encoding: 184 184 74
Width: 716
Flags: HW
LayerCount: 2
Fore
SplineSet
358 -461 m 0
 358 -514 372 -557 410 -557 c 0
 457 -557 483 -464 483 -377 c 0
 483 -301 463 -231 422 -231 c 0
 411 -231 397 -238 383 -255 c 0
 364 -277 346 -285 317 -285 c 2
 266 -284 l 2
 247 -284 232 -267 234 -247 c 2
 265 -36 l 2
 268 -15 286 1 307 1 c 2
 349 1 l 2
 368 1 383 -17 379 -35 c 2
 359 -146 l 2
 355 -169 375 -184 396 -172 c 0
 417 -161 439 -156 459 -156 c 0
 567 -156 620 -259 620 -370 c 0
 620 -500 547 -642 403 -642 c 0
 289 -642 219 -572 219 -464 c 0
 219 -446 221 -427 225 -408 c 0
 229 -389 250 -372 269 -372 c 2
 332 -373 l 2
 353 -373 366 -389 363 -409 c 0
 360 -427 358 -444 358 -461 c 0
EndSplineSet
EndChar
